HIERARCHY
ROOT Hips
{
  OFFSET -66.4034 39.4875 29.0187
  CHANNELS 6 Xposition Yposition Zposition Zrotation Xrotation Yrotation
  JOINT ToSpine
  {
    OFFSET -2.69724 7.43032 -0.144315
    CHANNELS 3 Zrotation Xrotation Yrotation
    JOINT Spine
    {
      OFFSET -0.0310711 10.7595 1.96963
      CHANNELS 3 Zrotation Xrotation Yrotation
      JOINT Spine1
      {
        OFFSET 13.1342 3.43533 0.764692
        CHANNELS 3 Zrotation Xrotation Yrotation
        JOINT Neck
        {
          OFFSET 29.8703 7.82586 -0.130764
          CHANNELS 3 Zrotation Xrotation Yrotation
          JOINT Head
          {
            OFFSET 9.52751 0.295786 -0.907742
            CHANNELS 3 Zrotation Xrotation Yrotation
            End Site
            {
              OFFSET 16.4037 0.713936 2.7358
            }
          }
        }
        JOINT LeftShoulder
        {
          OFFSET 27.5574 4.95586 2.47156
          CHANNELS 3 Zrotation Xrotation Yrotation
          JOINT LeftArm
          {
            OFFSET 1.20734 -0.998971 20.1238
            CHANNELS 3 Zrotation Xrotation Yrotation
            JOINT LeftForeArm
            {
              OFFSET 26.8049 -0.0536703 -0.155908
              CHANNELS 3 Zrotation Xrotation Yrotation
              JOINT LeftHand
              {
                OFFSET 26.6817 0 0.320147
                CHANNELS 3 Zrotation Xrotation Yrotation
                End Site
                {
                  OFFSET 18.6119 0 0.382219
                }
              }
            }
          }
        }
        JOINT RightShoulder
        {
          OFFSET 27.5927 4.71444 -2.65209
          CHANNELS 3 Zrotation Xrotation Yrotation
          JOINT RightArm
          {
            OFFSET 2.83739 -1.17114 -18.7564
            CHANNELS 3 Zrotation Xrotation Yrotation
            JOINT RightForeArm
            {
              OFFSET 28.839 -0.0548439 1.22491
              CHANNELS 3 Zrotation Xrotation Yrotation
              JOINT RightHand
              {
                OFFSET 26.5114 0 -0.101894
                CHANNELS 3 Zrotation Xrotation Yrotation
                End Site
                {
                  OFFSET 18.2168 0 0
                }
              }
            }
          }
        }
      }
    }
  }
  JOINT LeftUpLeg
  {
    OFFSET -4.76168 -1.9167 -10.2353
    CHANNELS 3 Zrotation Xrotation Yrotation
    JOINT LeftLeg
    {
      OFFSET 2.55951 -42.0585 -8.02213
      CHANNELS 3 Zrotation Xrotation Yrotation
      JOINT LeftFoot
      {
        OFFSET 3.16357 -42.5282 -3.95426
        CHANNELS 3 Zrotation Xrotation Yrotation
        JOINT LeftToeBase
        {
          OFFSET 0.346054 -6.02161 12.8035
          CHANNELS 3 Zrotation Xrotation Yrotation
          End Site
          {
            OFFSET 0.134235 -1.35082 5.13018
          }
        }
      }
    }
  }
  JOINT RightUpLeg
  {
    OFFSET -4.94151 -1.41743 10.6446
    CHANNELS 3 Zrotation Xrotation Yrotation
    JOINT RightLeg
    {
      OFFSET -2.56294 -42.0364 -7.94377
      CHANNELS 3 Zrotation Xrotation Yrotation
      JOINT RightFoot
      {
        OFFSET -3.0952 -42.555 -4.02241
        CHANNELS 3 Zrotation Xrotation Yrotation
        JOINT RightToeBase
        {
          OFFSET -0.0828122 -6.13587 12.8035
          CHANNELS 3 Zrotation Xrotation Yrotation
          End Site
          {
            OFFSET -0.131328 -1.35082 5.13018
          }
        }
      }
    }
  }
}
MOTION
Frames:	12
Frame Time:	0.0333333
-65.0136 22.29 31.1117 -1.75369 9.59896 -93.6561 -70.1915 0 88.8779 127.215 69.9188 -28.8546 -6.80698 20.3274 10.0624 179.507 20.6836 -179.207 -141.116 62.0087 -162.692 1.11919 -9.09294 -16.0407 -99.193 2.91228 -62.9826 33.6899 -14.1822 -109.41 0.420957 0.000575491 0.35866 -1.73785 6.46682 41.4352 -84.2555 -11.9014 67.4765 65.5734 17.7947 97.6439 0.58676 0.000330969 0.0646654 -50.3725 0.870669 107.889 -3.62196 40.3991 -17.7441 -2.08267 -11.3677 -0.930403 33.7136 -40.5536 39.426 -46.0542 -3.35262 94.0398 3.49127 45.6103 9.67454 -7.18258 -18.4405 1.36541 9.47057 -50.8128 6.97229 
-64.971 21.1383 31.4174 -0.926954 10.1503 -93.4823 -70.1915 0 88.8779 123.53 69.9288 -24.8986 -6.29855 19.7179 9.85199 178.508 20.1776 -178.798 -143.118 61.6659 -162.387 1.14245 -8.63463 -15.5106 -99.5601 4.3681 -60.2673 32.1607 -14.7096 -111.213 0.420957 0.000575499 0.35866 -1.86802 6.70267 42.341 -84.9055 -11.6078 65.3455 65.5091 18.5598 97.99 0.58676 0.000330968 0.0646654 -51.1506 0.527423 107.683 -3.45125 39.0071 -17.3654 -1.5879 -11.8622 -0.992626 33.0799 -40.5321 37.9666 -46.7261 -3.73819 93.623 3.55091 45.0979 10.7648 -7.7276 -18.501 1.348 8.64164 -50.8302 4.5785 
-64.9507 20.2633 31.7508 -0.53408 10.734 -93.1541 -70.1915 0 88.8779 120.729 70.0908 -21.9296 -5.4025 19.377 9.9559 177.19 19.8908 -178.666 -143.862 61.4677 -162.426 1.1836 -8.01177 -15.6037 -100.97 4.83628 -58.6534 31.3208 -15.507 -112.935 0.420957 0.000575504 0.35866 -1.77614 6.60229 41.3996 -84.9776 -13.0181 63.9799 66.1215 19.6527 98.2063 0.58676 0.000330965 0.0646654 -51.5419 0.254808 106.988 -3.31188 37.8457 -17.034 -1.72768 -11.6004 -0.963753 32.9983 -40.4254 38.0732 -47.5721 -3.56622 93.8585 3.4696 43.8433 11.3203 -7.6265 -18.6439 1.35309 8.14717 -49.6 3.93505 
-65.0048 19.5524 31.9577 -0.545014 11.2474 -92.9893 -70.1915 0 88.8779 120.733 70.2095 -21.9241 -5.91616 19.5368 9.83599 177.801 19.8825 179.45 -142.373 60.9115 -163.719 1.18686 -8.04014 -15.8687 -101.763 4.5681 -56.7798 30.0581 -15.9236 -114.574 0.420957 0.00057551 0.35866 -1.72422 6.09582 42.878 -84.8727 -12.0424 62.23 66.0852 20.4743 98.5535 0.58676 0.000330962 0.0646654 -51.8209 0.349633 107.108 -3.25715 37.1545 -17.1126 -1.39155 -11.2489 -0.940225 33.9672 -40.8353 39.2327 -47.92 -3.32134 94.1753 3.37216 43.1788 11.1461 -7.90273 -18.588 1.34281 7.5806 -48.4757 2.91193 
-65.0636 18.9207 32.1589 -1.11381 11.6043 -92.8506 -70.1915 0 88.8779 120.567 70.447 -21.8848 -5.93801 19.6727 10.0689 178.015 19.7489 178.912 -141.508 60.5906 -164.317 1.19268 -8.11958 -16.4744 -102.682 4.05916 -54.7901 29.692 -16.4829 -115.659 0.420957 0.000575512 0.35866 -1.71941 5.971 43.3932 -84.9018 -11.5248 61.1148 66.7927 21.0865 98.5046 0.58676 0.000330958 0.0646654 -52.2489 0.829996 107.746 -3.25189 36.7682 -17.3773 -1.15229 -10.988 -0.923742 33.8536 -40.5531 39.7674 -48.1893 -2.91186 94.7083 3.31955 42.7016 11.1716 -7.5686 -18.6467 1.35508 7.76775 -48.2961 3.63447 
-65.1074 18.2985 32.421 -1.29251 12.1152 -92.7892 -70.1915 0 88.8779 118.505 70.6969 -20.1618 -5.64253 19.4723 10.5364 177.61 19.6353 179.503 -142.501 60.7514 -163.22 1.22133 -8.0336 -17.6559 -104.305 2.71552 -53.0691 28.5518 -16.7045 -117.044 0.420957 0.000575517 0.35866 -1.68674 5.92848 43.0713 -84.4969 -12.1607 60.3249 66.1387 21.1927 98.82 0.58676 0.000330957 0.0646654 -52.6412 0.744416 107.533 -3.12638 35.8084 -16.802 -1.44887 -11.5781 -0.969033 32.7067 -40.2725 37.7878 -48.4785 -2.85685 94.6184 3.24242 41.9291 11.2109 -7.42176 -18.6176 1.36009 8.18925 -48.5222 4.87352 
-65.1678 17.7102 32.6477 -1.21949 12.6077 -92.8813 -70.1915 0 88.8779 116.501 70.9666 -18.2563 -5.15666 19.6248 10.1508 176.103 19.5743 178.622 -141.956 60.3299 -165.03 1.23642 -7.89516 -17.8409 -105.979 2.34591 -51.9005 27.8683 -17.0569 -118.212 0.420957 0.000575522 0.35866 -1.58461 5.57789 43.1204 -84.8123 -12.9268 59.5238 65.8381 21.4172 99.0377 0.58676 0.000330954 0.0646654 -52.9397 0.1865 106.695 -3.06543 34.8717 -16.9382 -1.3006 -10.7266 -0.89457 32.6962 -40.3493 37.5695 -48.779 -2.58101 95.2545 3.18237 41.4178 11.1874 -6.99776 -18.9469 1.38048 5.84549 -46.4425 -1.69459 
-65.224 17.079 32.8927 -1.68762 12.8203 -92.9528 -70.1915 0 88.8779 115.635 71.0004 -17.1343 -5.16756 19.6744 9.80257 176.676 19.3242 179.051 -142.626 60.2837 -164.042 1.25641 -7.84923 -18.6145 -107.3 1.65501 -50.298 26.6209 -16.8493 -119.228 0.420957 0.000575528 0.35866 -1.6795 5.83502 43.4111 -84.5217 -13.4885 58.4117 67.5631 22.0155 98.5331 0.58676 0.000330951 0.0646654 -53.7395 0.0944634 106.626 -3.03016 33.9369 -17.3264 -1.20274 -10.3914 -0.867418 31.607 -40.2491 35.0976 -49.2216 -2.92527 94.5771 3.20886 40.7032 12.1016 -7.13515 -18.9225 1.37545 5.72492 -47.77 -2.64204 
-65.2556 16.5489 33.0081 -1.70463 13.0218 -92.9516 -70.1915 0 88.8779 114.264 70.9788 -15.7011 -4.83057 19.5432 9.68034 176.497 19.1077 179.676 -144.02 60.4011 -162.481 1.27998 -7.74372 -19.2661 -108.59 1.0255 -48.9726 25.1024 -16.3958 -120.249 0.420957 0.000575533 0.35866 -1.69955 5.88923 43.4719 -84.3801 -13.7063 57.7619 66.6786 21.9161 98.8751 0.58676 0.00033095 0.0646654 -54.0956 -0.0547146 106.004 -2.98675 33.6238 -17.0175 -1.49276 -11.1214 -0.924818 31.2236 -40.1014 34.5454 -49.6478 -2.84627 94.5843 3.05573 40.0407 11.2407 -7.36287 -18.0265 1.35323 7.45776 -48.1718 2.71666 
-65.1933 16.0156 33.2048 -2.22709 13.4937 -93.1685 -70.1915 0 88.8779 111.838 71.3269 -12.8026 -4.12835 19.8728 8.96224 176.56 18.9651 -179.85 -144.192 60.4724 -161.527 1.31229 -7.46271 -19.4665 -109.527 1.14745 -48.0004 25.3102 -16.7471 -120.533 0.420957 0.000575535 0.35866 -1.6905 5.92867 43.1269 -84.3941 -14.4347 57.1891 67.0155 21.7151 98.6534 0.58676 0.000330947 0.0646654 -54.478 -0.481945 105.39 -2.88775 32.7659 -16.5345 -1.87362 -11.0242 -0.903374 30.4345 -39.9432 32.9097 -49.6879 -2.9582 94.8139 2.85766 39.5121 10.6007 -7.3258 -18.1933 1.35694 7.57779 -48.9743 2.59187 
-65.1321 15.473 33.3662 -2.13957 13.7499 -93.1628 -70.1915 0 88.8779 107.88 71.7148 -8.84981 -3.01066 19.8861 9.15722 176.283 18.7752 -179.596 -143.305 60.2439 -162.434 1.30771 -7.68309 -20.2747 -110.379 0.688927 -47.3025 25.5547 -17.0638 -120.717 0.420957 0.000575536 0.35866 -1.63412 5.93144 42.2059 -84.9536 -15.1063 56.1607 68.5787 22.1031 98.132 0.58676 0.000330943 0.0646654 -55.0336 -0.402036 105.39 -2.9567 32.0571 -17.9392 -2.03214 -10.7158 -0.868137 30.2242 -40.0407 32.067 -50.2649 -3.07311 94.1878 2.65533 38.7967 12.0449 -7.23734 -17.8252 1.35417 6.44048 -48.6634 -0.783193 
-65.1344 15.0658 33.4762 -2.18809 14.0154 -93.2823 -70.1915 0 88.8779 106.008 72.0678 -7.35303 -2.74642 20.0971 9.31498 175.862 18.8752 179.364 -142.895 60.0224 -163.406 1.28925 -7.93906 -20.5439 -111.171 0.111917 -46.5855 24.847 -16.9738 -121.405 0.420957 0.000575538 0.35866 -1.49917 5.47408 42.1725 -85.132 -15.4824 55.5179 67.6352 22.1997 98.5704 0.58676 0.000330943 0.0646654 -55.3547 -0.535434 105.07 -2.97456 31.5457 -18.6568 -1.96194 -10.5617 -0.855657 30.2279 -40.1985 31.6293 -50.4906 -3.24219 93.6954 2.38737 38.3763 12.1369 -7.02061 -18.1656 1.36581 6.57987 -47.6263 0.232167 
